# xmcd
#
# Track frame offsets:
# 150
# 4969
# 80252
# 98643
# 121593
# 140646
# 187859
# 226346
#
# Disc length: 3285 seconds
#
# Revision: 0
# Processed by: cddbd v1.4PL0 Copyright (c) Steve Scherf et al.
# Submitted via: Audion 3.0.2 (http://www.panic.com/audion/)
#
DISCID=550cd308
DTITLE=Tetuzi Akiyama - Resophonie
DYEAR=1900
DGENRE=
TTITLE0=Battement
TTITLE1=Lethargie
TTITLE2=Bordure
TTITLE3=Convulsion
TTITLE4=Resurrection
TTITLE5=Bourrage
TTITLE6=Dissociation
TTITLE7=Primitif
EXTD=
EXTT0=
EXTT1=
EXTT2=
EXTT3=
EXTT4=
EXTT5=
EXTT6=
EXTT7=
PLAYORDER=
